<svg xmlns="http://www.w3.org/2000/svg" width="32" height="32" viewBox="0 0 32 32" fill="none">
  <path d="M16 12.8172C15.1575 12.8228 14.3512 13.1599 13.7555 13.7556C13.1598 14.3513 12.8227 15.1576 12.8171 16C12.8171 17.742 14.2579 19.1828 16 19.1828C17.7409 19.1828 19.1828 17.742 19.1828 16C19.1828 14.259 17.7409 12.8172 16 12.8172Z" fill="#767676"/>
  <path d="M15.9999 8.5733C7.90178 8.5733 5.46799 15.5935 5.44571 15.6646L5.33325 15.9998L5.44465 16.3351C5.46799 16.4062 7.90178 23.4264 15.9999 23.4264C24.0981 23.4264 26.5318 16.4062 26.5541 16.3351L26.6666 15.9998L26.5552 15.6646C26.5318 15.5935 24.0981 8.5733 15.9999 8.5733ZM15.9999 21.3045C10.3228 21.3045 8.12352 17.2241 7.59093 15.9998C8.12564 14.7713 10.326 10.6952 15.9999 10.6952C21.677 10.6952 23.8763 14.7755 24.4089 15.9998C23.8742 17.2284 21.6738 21.3045 15.9999 21.3045Z" fill="#767676"/>
</svg>